<svg xmlns="http://www.w3.org/2000/svg" viewBox="0 0 360.5 112.4" enable-background="new 0 0 360.5 112.4"><g fill-rule="evenodd" clip-rule="evenodd" fill="#CC679A"><path d="M36.7 81.6c-3.7 3.9-4.7 8.8-2.7 10 1.9 1.1 6.3-.2 9.5-3.7 1-1.1 1.9-2.4 2.5-3.7.1-.3.2-.5.4-.8l.3-.8c.8-2.5.9-5.2.1-8.2l-.5.3c.1 0-5.6 2.7-9.6 6.9zM57.7 1.5c-30.2 0-54.7 24.5-54.7 54.7 0 30.2 24.5 54.7 54.7 54.7 30.2 0 54.7-24.5 54.7-54.7.1-30.2-24.4-54.7-54.7-54.7zm17.9 48.5c-9.5 3.7-17.3 3.1-20.6 2-3.7-1.2-5.8-3.6-6.3-5-.2-.5-.6-1.4 0-1.7.3-.2.5-.1 1.4.9.9 1 4.4 3.6 11.1 2.8 17.5-2 28.1-15.6 24.8-22.9-2.3-5.1-15.9-7.4-32.7 1-20.7 10.2-21.8 18.7-22 21.9-.5 8.8 10.9 13.5 17.1 20.1l.4.5c1.9-.7 4.5-1.1 8.6-1.2 10-.2 15.6 6.4 15.4 12.3-.2 4.6-4.4 6.5-5.2 6.7-.6.1-.9.1-1-.3-.1-.3.1-.5.8-.9.7-.4 2.7-1.8 3-4.3.4-2.5-1.5-8.5-11.1-9.6-3.4-.4-6.1-.1-8.4.5 1.7 3.7 2 11.1-1.8 16.8-4 5.9-11.4 9.5-18.6 7.5-2.3-.6-5.8-5.4-2.8-12.1 2.9-6.3 15.1-12.5 16.8-13.4-5.7-5.1-19.5-11.7-21.4-21.7-.6-2.9.8-9.7 9.2-17.6 7.1-6.6 16.9-11.7 26-14.9 15.3-5.4 31.4-2.2 33.9 7.5 2.3 9.6-6 21-16.6 25.1z"/></g><path fill="#E41F13" d="M145.8 28.6c-18.5 18.5-18.5 48.6 0 67.1 18.5 18.5 48.6 18.5 67.1 0 18.5-18.5 25.7-92.8 25.7-92.8s-74.3 7.2-92.8 25.7zm38.4 36.2c9.2 9.5 15.6 17.2 14.8 18-.8.8-8.5-5.6-18-14.8-.2 13.2-1.1 23.2-2.3 23.2-1.1 0-2.1-10-2.3-23.2-9.5 9.2-17.2 15.6-18 14.8-.8-.8 5.6-8.5 14.8-18-13.2-.2-23.2-1.1-23.2-2.3s10-2.1 23.2-2.3c-9.2-9.5-15.6-17.2-14.8-18 .8-.8 8.5 5.6 18 14.8.2-13.2 1.1-23.2 2.3-23.2 1.1 0 2.1 10 2.3 23.2 9.5-9.2 17.2-15.6 18-14.8.8.8-5.6 8.5-14.8 18 13.2.2 23.2 1.1 23.2 2.3s-10 2.1-23.2 2.3z"/><circle fill="#FFED00" cx="303.8" cy="37.8" r="35.4"/><circle fill="#E6007E" cx="286.6" cy="68.7" r="35.4"/><circle fill="#009FE3" cx="322" cy="68.7" r="35.4"/><path fill="#FFED00" d="M304.4 38c5.2-3 11.3-4.8 17.7-4.8 6.2 0 12.1 1.6 17.2 4.5 0-19.6-15.9-35.4-35.4-35.4-19.6 0-35.4 15.9-35.4 35.4v.6c5.3-3.2 11.6-5 18.2-5 6.4 0 12.4 1.7 17.7 4.7z"/><path fill="#E6007E" d="M286.6 68.7c-10.7-6-18-17.3-18.2-30.4-10.3 6.2-17.2 17.5-17.2 30.4 0 19.6 15.9 35.4 35.4 35.4 6.5 0 12.5-1.7 17.7-4.8-10.5-6-17.7-17.5-17.7-30.6z"/><path fill="#E30613" d="M286.6 68.7c0-13.1 7.1-24.6 17.7-30.7-5.2-3-11.3-4.8-17.7-4.8-6.7 0-12.9 1.8-18.2 5 .2 13.2 7.5 24.6 18.2 30.5z"/><path fill="#009FE3" d="M339.3 37.7c0 12.9-6.9 24.2-17.2 30.4v.6c0 13.1-7.1 24.5-17.7 30.7 5.2 3 11.3 4.8 17.7 4.8 19.6 0 35.4-15.9 35.4-35.4 0-13.4-7.4-25-18.2-31.1z"/><path fill="#009640" d="M304.4 38c10.4 6 17.5 17.2 17.7 30.1 10.3-6.2 17.2-17.5 17.2-30.4-5.1-2.8-11-4.5-17.2-4.5-6.5.1-12.5 1.8-17.7 4.8z"/><path fill="#312783" d="M322.1 68.7v-.6c-5.3 3.2-11.6 5-18.2 5-6.2 0-12.1-1.6-17.2-4.5 0 13.1 7.1 24.5 17.7 30.7 10.5-6 17.7-17.5 17.7-30.6z"/><path fill="#323230" d="M304.4 38c-10.6 6.1-17.7 17.6-17.7 30.7 5.1 2.8 11 4.5 17.2 4.5 6.7 0 12.9-1.8 18.2-5-.2-12.9-7.3-24.1-17.7-30.2z"/></svg>