<svg xmlns="http://www.w3.org/2000/svg" viewBox="0 0 392.3 229.2" enable-background="new 0 0 392.3 229.2"><path d="M120.3 227c.5 1-.2 2.2-1.5 2.2h-33.9c-1.5 0-2.9-.9-3.6-2.2l-5.1-17.9h-32l-5.1 17.9c-.7 1.4-2 2.2-3.6 2.2h-33.8c-1.4 0-2-1.2-1.5-2.2l38.6-113.3c.5-1 2.4-2.2 4.1-2.2h34.8c1.7 0 3.6 1.2 4.1 2.2l38.5 113.3zm-60.1-74.7l-9.2 32.4h18.4l-9.2-32.4zm331.8 72.6c1 2-.3 4.3-3 4.3h-65.8c-3 0-5.6-1.7-7-4.3l-10-34.9h-62.5l-10 34.9c-1.3 2.7-4 4.3-7 4.3h-65.8c-2.7 0-4-2.3-3-4.3l75.3-220.6c1-2 4.7-4.3 8-4.3h67.8c3.3 0 7 2.3 8 4.3l75 220.6zm-117-145.5l-17.9 63.1h35.9l-18-63.1z"/></svg>